<svg width="50" height="50" viewBox="0 0 50 50" fill="none" xmlns="http://www.w3.org/2000/svg">
<rect x="1" y="1" width="48" height="48" rx="9" stroke="#FF0000" stroke-width="2"/>
<g clip-path="url(#clip0)">
<path d="M37.1801 16.7056L36.5177 14.72C36.2655 13.9638 35.5603 13.4557 34.7633 13.4557H29.1962V11.6431C29.1962 10.7372 28.4597 10 27.554 10H22.4559C21.5504 10 20.8137 10.7372 20.8137 11.6431V13.4557H15.2468C14.4496 13.4557 13.7444 13.9638 13.4922 14.72L12.8298 16.7056C12.679 17.1576 12.7554 17.6582 13.034 18.0447C13.3125 18.4313 13.7632 18.6623 14.2397 18.6623H14.9321L16.456 37.5063C16.5693 38.9046 17.7558 40 19.1577 40H31.1614C32.5631 40 33.7498 38.9046 33.8629 37.5061L35.3868 18.6623H35.7702C36.2467 18.6623 36.6974 18.4313 36.9759 18.045C37.2545 17.6584 37.3309 17.1576 37.1801 16.7056ZM22.5715 11.7578H27.4384V13.4557H22.5715V11.7578ZM32.1108 37.3644C32.071 37.8568 31.654 38.2422 31.1614 38.2422H19.1577C18.6651 38.2422 18.2481 37.8568 18.2083 37.3644L16.6956 18.6623H33.6233L32.1108 37.3644ZM14.6167 16.9044L15.1598 15.2762C15.1722 15.2386 15.2072 15.2135 15.2468 15.2135H34.7633C34.8029 15.2135 34.8377 15.2386 34.8503 15.2762L35.3934 16.9044H14.6167Z" fill="#FF0000"/>
<path d="M29.3076 37.3021C29.3231 37.303 29.3385 37.3033 29.354 37.3033C29.8184 37.3033 30.2066 36.9393 30.2309 36.4701L31.0562 20.6265C31.0814 20.1417 30.7088 19.7281 30.2242 19.7029C29.7383 19.6771 29.3261 20.0501 29.3007 20.5349L28.4756 36.3786C28.4504 36.8633 28.8228 37.2769 29.3076 37.3021Z" fill="#FF0000"/>
<path d="M19.8183 36.4722C19.844 36.9407 20.2317 37.3033 20.6952 37.3033C20.7112 37.3033 20.7277 37.3028 20.7439 37.3019C21.2285 37.2756 21.5999 36.8613 21.5736 36.3765L20.7091 20.5329C20.6828 20.0481 20.2685 19.6766 19.7838 19.7032C19.2992 19.7295 18.9278 20.1438 18.9541 20.6286L19.8183 36.4722Z" fill="#FF0000"/>
<path d="M25.0149 37.3033C25.5004 37.3033 25.8938 36.9099 25.8938 36.4244V20.5807C25.8938 20.0953 25.5004 19.7018 25.0149 19.7018C24.5294 19.7018 24.136 20.0953 24.136 20.5807V36.4244C24.136 36.9099 24.5294 37.3033 25.0149 37.3033Z" fill="#FF0000"/>
</g>
<defs>
<clipPath id="clip0">
<rect width="30" height="30" fill="white" transform="translate(10 10)"/>
</clipPath>
</defs>
</svg>
