<svg width="50" height="50" viewBox="0 0 50 50" fill="none" xmlns="http://www.w3.org/2000/svg">
<rect x="1" y="1" width="48" height="48" rx="9" stroke="#00FF29" stroke-width="2"/>
<path d="M34.6425 25C34.0508 25 33.5711 25.4797 33.5711 26.0715V36.7856C33.5711 37.3773 33.0914 37.857 32.4996 37.857H13.2142C12.6225 37.857 12.1428 37.3773 12.1428 36.7856V15.3573C12.1428 14.7656 12.6225 14.2859 13.2142 14.2859H26.0712C26.663 14.2859 27.1427 13.8062 27.1427 13.2144C27.1427 12.6227 26.663 12.1431 26.0712 12.1431H13.2142C11.4391 12.1431 10 13.5821 10 15.3573V36.7856C10 38.5608 11.4391 39.9998 13.2142 39.9998H32.4997C34.2749 39.9998 35.7139 38.5608 35.7139 36.7856V26.0714C35.7139 25.4797 35.2343 25 34.6425 25Z" fill="#00FF29"/>
<path d="M38.7989 11.2016C38.0297 10.4322 36.9862 10.0001 35.8982 10.0002C34.8096 9.99706 33.7651 10.43 32.9979 11.2023L18.8852 25.3139C18.7681 25.4318 18.6798 25.5752 18.627 25.7328L16.4842 32.1613C16.2971 32.7227 16.6007 33.3294 17.1621 33.5163C17.271 33.5526 17.3851 33.5712 17.4998 33.5713C17.6149 33.5711 17.7292 33.5526 17.8384 33.5167L24.2669 31.3739C24.4248 31.3211 24.5682 31.2323 24.6858 31.1146L38.7985 17.0019C40.4003 15.4003 40.4005 12.8034 38.7989 11.2016ZM37.2835 15.488L23.3551 29.4164L19.1937 30.806L20.5791 26.6499L34.5128 12.7216C35.2788 11.9571 36.5196 11.9583 37.2842 12.7243C37.6493 13.0903 37.8551 13.5857 37.8567 14.1026C37.858 14.6224 37.6517 15.1211 37.2835 15.488Z" fill="#00FF29"/>
</svg>
